<svg xmlns="http://www.w3.org/2000/svg" width="100%" height="280" viewBox="0 0 1000 280"><defs><linearGradient id="bg-grad" x1="0%" x2="100%" y1="0%" y2="100%"><stop offset="0%" stop-color="#0f172a"/><stop offset="50%" stop-color="#1e1b4b"/><stop offset="100%" stop-color="#0f172a"/></linearGradient><linearGradient id="title-grad" x1="0%" x2="100%" y1="0%" y2="0%"><stop offset="0%" stop-color="#38bdf8"/><stop offset="50%" stop-color="#818cf8"/><stop offset="100%" stop-color="#c084fc"/></linearGradient><linearGradient id="pill-grad" x1="0%" x2="100%" y1="0%" y2="0%"><stop offset="0%" stop-color="#3b82f6" stop-opacity=".3"/><stop offset="100%" stop-color="#8b5cf6" stop-opacity=".3"/></linearGradient><filter id="glow" width="140%" height="140%" x="-20%" y="-20%"><feGaussianBlur result="blur" stdDeviation="8"/><feComposite in="SourceGraphic" in2="blur" operator="over"/></filter><style>@keyframes pulse{0%{transform:scale(.95);opacity:.2}}@keyframes wave{0%{stroke-dashoffset:0}}@keyframes float{0%{transform:translateY(0)}}.badge-text,.subtitle-text,.title-text{font-family:system-ui,-apple-system,&apos;Segoe UI&apos;,Roboto,Helvetica,Arial,sans-serif}.title-text{font-weight:800;font-size:38px;fill:url(#title-grad)}.subtitle-text{font-weight:500;font-size:16px;fill:#94a3b8}.badge-text{font-weight:600;font-size:13px;fill:#38bdf8}.pulse-circle{animation:pulse 4s ease-in-out infinite alternate}.wave-path{animation:wave 8s ease-in-out infinite alternate}.float-node{animation:float 5s ease-in-out infinite alternate}</style></defs><rect width="1000" height="280" fill="url(#bg-grad)" stroke="#334155" stroke-width="1.5" rx="16"/><g opacity=".4"><circle cx="850" cy="140" r="120" fill="#6366f1" class="pulse-circle" filter="url(#glow)"/><circle cx="150" cy="220" r="90" fill="#0284c7" class="pulse-circle" filter="url(#glow)"/><path fill="none" stroke="#38bdf8" stroke-dasharray="8 6" stroke-width="2" d="M 600 240 Q 720 180 840 220 T 960 140" class="wave-path"/><path fill="none" stroke="#818cf8" stroke-dasharray="6 4" stroke-width="1.5" d="M 650 60 Q 780 120 880 80 T 980 180" class="wave-path"/></g><g class="float-node" transform="translate(680, 50)"><rect width="110" height="42" x="40" y="30" fill="#1e293b" stroke="#38bdf8" stroke-width="1.5" rx="8"/><text x="95" y="56" fill="#e2e8f0" font-family="sans-serif" font-size="12" font-weight="bold" text-anchor="middle">📥 FNOL Intake</text><rect width="125" height="42" x="180" y="70" fill="#1e293b" stroke="#818cf8" stroke-width="1.5" rx="8"/><text x="242" y="96" fill="#e2e8f0" font-family="sans-serif" font-size="12" font-weight="bold" text-anchor="middle">⚖️ Adjudication</text><rect width="130" height="42" x="80" y="125" fill="#1e293b" stroke="#c084fc" stroke-width="1.5" rx="8"/><text x="145" y="151" fill="#e2e8f0" font-family="sans-serif" font-size="12" font-weight="bold" text-anchor="middle">💳 Settlement &amp; SIU</text><line x1="150" x2="180" y1="51" y2="91" stroke="#475569" stroke-dasharray="4" stroke-width="2"/><line x1="180" x2="150" y1="112" y2="125" stroke="#475569" stroke-dasharray="4" stroke-width="2"/></g><g><g transform="translate(50, 0) translate(0, 45)"><rect width="260" height="28" fill="url(#pill-grad)" stroke="#38bdf8" stroke-width="1" rx="14"/><text x="130" y="19" class="badge-text" text-anchor="middle">🛡️ INSURANCE TECH ECOSYSTEM</text></g><text x="0" y="122" class="title-text" transform="translate(50, 0)">Awesome Insurance Claims</text><text x="0" y="165" class="title-text" transform="translate(50, 0)">Management 🚀</text><text x="0" y="205" class="subtitle-text" transform="translate(50, 0)">Curated SaaS Platforms, Core Engines &amp; Open-Source Ecosystem</text><text x="0" y="228" fill="#64748b" class="subtitle-text" font-size="14" transform="translate(50, 0)">FNOL • Claims Adjudication • Reserving • Fraud Detection • Payments</text></g></svg>